<?xml version="1.0" standalone="no"?>
<!DOCTYPE svg PUBLIC "-//W3C//DTD SVG 20010904//EN"
 "http://www.w3.org/TR/2001/REC-SVG-20010904/DTD/svg10.dtd">
<svg version="1.0" xmlns="http://www.w3.org/2000/svg"
 width="2400.000000pt" height="401.000000pt" viewBox="0 0 2400.000000 401.000000"
 preserveAspectRatio="xMidYMid meet">

<g transform="translate(0.000000,401.000000) scale(0.100000,-0.100000)"
fill="#1700b2" stroke="none">
<path d="M2890 3909 c-316 -37 -700 -162 -1020 -331 -290 -153 -514 -312 -894
-635 -209 -178 -852 -817 -862 -857 -4 -17 -1 -38 7 -54 7 -15 162 -176 344
-358 706 -707 1083 -989 1635 -1227 208 -89 491 -168 725 -202 149 -22 461
-30 611 -16 687 63 1306 367 2024 995 131 114 811 790 829 824 11 21 3 32
-116 155 -237 246 -652 645 -806 775 -432 365 -795 594 -1180 746 -198 78
-489 155 -667 175 -122 14 -542 21 -630 10z m415 -274 c257 -11 495 -65 790
-182 341 -134 676 -346 1070 -674 155 -128 735 -693 735 -715 0 -16 -362 -380
-546 -549 -584 -536 -1113 -847 -1629 -959 -361 -78 -604 -83 -955 -20 -204
37 -313 66 -448 120 -366 146 -711 362 -1082 677 -137 117 -458 418 -635 597
l-140 141 200 196 c772 756 1298 1112 1897 1284 184 52 481 102 563 93 17 -2
98 -6 180 -9z"/>
<path d="M2935 3253 c-11 -2 -58 -11 -105 -20 -324 -60 -809 -300 -1140 -564
-189 -151 -630 -574 -630 -604 0 -23 303 -326 478 -478 126 -110 271 -223 377
-294 270 -180 633 -341 892 -393 88 -17 139 -20 383 -20 324 0 388 9 616 85
314 104 635 281 908 501 126 101 607 572 606 594 0 22 -427 441 -562 553 -221
183 -321 251 -519 355 -294 155 -591 258 -819 282 -92 9 -445 12 -485 3z m510
-288 c195 -37 372 -100 594 -211 255 -127 464 -279 754 -549 l148 -138 -68
-70 c-288 -299 -550 -497 -848 -642 -314 -153 -666 -238 -910 -220 -123 9
-318 49 -447 92 -249 82 -621 293 -843 478 -112 93 -375 344 -375 358 0 22
345 334 485 439 317 238 752 432 1080 482 59 9 352 -4 430 -19z"/>
<path d="M3057 2565 c-135 -37 -285 -161 -345 -285 -141 -290 35 -656 345
-720 89 -19 276 -8 345 19 125 49 228 156 286 295 18 45 26 86 30 157 6 118
-16 202 -77 297 -107 164 -263 252 -446 251 -49 0 -112 -7 -138 -14z"/>
<path d="M7195 3408 c-3 -7 -4 -598 -3 -1313 l3 -1300 260 0 260 0 5 445 5
445 355 6 c424 8 493 19 670 110 201 104 344 283 401 504 29 113 36 303 15
421 -66 380 -300 611 -686 679 -115 20 -1278 22 -1285 3z m1119 -423 c139 -29
224 -93 282 -211 34 -68 38 -84 42 -177 7 -167 -29 -278 -118 -361 -109 -102
-186 -120 -515 -120 -137 -1 -258 2 -267 6 -17 7 -18 37 -18 437 0 334 3 430
13 434 6 3 125 6 262 6 183 0 268 -3 319 -14z"/>
<path d="M10212 2769 c-356 -46 -609 -240 -743 -569 -47 -117 -60 -198 -66
-405 -4 -168 -2 -202 17 -295 53 -259 186 -465 384 -594 113 -73 204 -111 326
-136 141 -29 402 -24 520 9 99 29 239 99 322 161 451 340 480 1207 55 1596
-204 186 -508 273 -815 233z m311 -412 c73 -33 150 -106 192 -181 63 -113 102
-309 92 -464 -21 -327 -168 -537 -392 -563 -198 -23 -336 56 -426 244 -57 119
-72 202 -72 387 0 125 4 170 21 231 42 155 126 276 234 334 72 39 99 45 204
41 72 -2 102 -8 147 -29z"/>
<path d="M12295 2769 c-286 -35 -504 -157 -598 -337 -48 -91 -58 -135 -58
-249 0 -224 103 -380 316 -479 90 -41 202 -72 436 -119 233 -46 301 -68 348
-111 50 -45 65 -81 59 -149 -9 -112 -99 -186 -252 -208 -140 -20 -306 21 -383
95 -27 26 -64 95 -86 161 -5 14 -19 17 -89 16 -109 0 -405 -23 -413 -31 -11
-11 26 -131 65 -213 88 -182 256 -303 510 -368 74 -19 112 -22 305 -22 195 0
230 3 308 23 186 47 307 111 405 216 111 119 147 225 140 416 -4 109 -6 121
-40 192 -95 201 -231 271 -723 372 -203 42 -250 56 -309 90 -114 67 -127 186
-31 282 56 55 119 75 244 75 133 0 191 -20 262 -90 36 -37 63 -76 79 -114 l24
-59 51 6 c27 3 128 8 223 12 132 5 175 10 179 20 8 22 -26 146 -58 215 -20 42
-54 86 -107 139 -141 142 -339 215 -609 224 -65 3 -154 0 -198 -5z"/>
<path d="M14395 2770 c-331 -35 -611 -239 -735 -537 -69 -164 -95 -325 -87
-530 8 -200 34 -307 113 -468 108 -220 299 -377 549 -451 121 -36 372 -45 508
-20 199 38 346 113 479 246 75 75 93 101 136 191 28 57 53 118 57 136 6 30 4
32 -27 37 -18 3 -98 10 -178 16 -80 6 -173 13 -206 16 l-62 6 -33 -61 c-37
-71 -116 -148 -186 -182 -65 -32 -232 -39 -319 -14 -117 33 -205 112 -263 235
-35 74 -64 192 -59 241 l3 34 683 3 682 2 0 103 c0 180 -39 360 -110 513 -87
187 -197 302 -375 390 -121 60 -185 79 -320 94 -99 11 -146 11 -250 0z m249
-385 c156 -41 259 -167 295 -358 8 -46 8 -49 -17 -58 -30 -12 -817 -8 -828 4
-13 12 13 117 46 183 95 194 293 284 504 229z"/>
<path d="M18505 2770 c-343 -39 -619 -255 -745 -583 -64 -165 -87 -435 -55
-637 22 -133 48 -214 106 -330 39 -78 68 -118 131 -185 137 -145 281 -225 478
-265 91 -19 128 -21 270 -17 176 5 278 25 402 80 133 59 276 181 352 300 37
58 96 193 96 220 0 20 -24 24 -210 37 -85 5 -181 12 -212 15 l-57 6 -25 -48
c-13 -26 -36 -64 -50 -83 -39 -51 -140 -117 -200 -131 -80 -18 -238 -7 -311
21 -82 32 -164 114 -210 212 -37 78 -68 201 -63 252 l3 31 683 3 682 2 0 91
c0 50 -7 138 -16 196 -57 389 -234 631 -550 758 -125 50 -336 73 -499 55z
m258 -385 c150 -39 252 -156 291 -334 14 -60 15 -76 4 -82 -18 -12 -819 -11
-837 0 -37 24 30 203 109 293 104 119 269 166 433 123z"/>
<path d="M20643 2770 c-108 -15 -196 -41 -290 -85 -217 -102 -354 -249 -446
-481 -104 -263 -109 -584 -11 -854 35 -98 56 -140 117 -228 164 -238 446 -372
782 -372 474 0 820 258 935 699 70 265 38 599 -80 836 -123 247 -338 409 -625
471 -85 18 -297 26 -382 14z m328 -417 c127 -63 212 -191 251 -382 16 -79 19
-122 15 -241 -6 -170 -19 -229 -83 -358 -47 -97 -96 -147 -186 -193 -90 -46
-258 -45 -357 3 -64 31 -143 113 -181 188 -79 156 -108 424 -66 605 35 153
105 273 198 342 79 57 136 74 248 71 85 -3 103 -7 161 -35z"/>
<path d="M23107 2769 c-194 -22 -376 -133 -461 -281 -11 -21 -24 -38 -27 -38
-3 0 -9 62 -13 137 -4 75 -9 139 -11 142 -8 7 -421 14 -449 7 l-26 -6 2 -968
3 -967 251 -3 252 -2 6 127 c4 71 5 299 3 508 -6 585 2 668 81 785 73 108 179
162 320 162 120 0 186 -27 257 -103 41 -45 60 -76 77 -127 22 -66 22 -77 28
-707 l5 -640 255 0 255 0 3 620 c3 645 -1 747 -39 894 -29 114 -69 189 -139
264 -150 160 -366 228 -633 196z"/>
<path d="M15592 2732 c-13 -9 10 -75 208 -607 75 -201 201 -542 285 -770 35
-96 120 -319 180 -475 41 -105 41 -128 6 -222 -67 -175 -169 -231 -359 -194
-46 9 -87 14 -91 11 -8 -9 -80 -378 -75 -387 3 -4 39 -15 82 -25 107 -25 369
-25 462 0 263 70 389 222 548 662 28 77 72 194 97 260 26 66 61 163 80 215 39
112 150 415 240 660 127 344 233 637 271 748 34 97 37 114 24 122 -24 15 -492
13 -513 -2 -15 -12 -42 -91 -173 -508 -31 -96 -93 -294 -139 -440 -46 -146
-95 -304 -110 -352 -14 -48 -30 -90 -35 -93 -9 -6 -27 45 -175 520 -217 690
-275 869 -287 877 -17 10 -509 10 -526 0z"/>
</g>
</svg>
